<?xml version="1.0" encoding="utf-8"?>
<!-- Generator: Adobe Illustrator 26.2.1, SVG Export Plug-In . SVG Version: 6.00 Build 0)  -->
<svg version="1.1" id="Layer_1" xmlns="http://www.w3.org/2000/svg" xmlns:xlink="http://www.w3.org/1999/xlink" x="0px" y="0px"
	 viewBox="0 0 36 34" style="enable-background:new 0 0 36 34;" xml:space="preserve">
<style type="text/css">
	.st0{fill:none;}
	.st1{fill:url(#SVGID_1_);}
	.st2{fill:url(#SVGID_00000046315829473128385920000007407687906607067048_);}
	.st3{fill:url(#SVGID_00000052822555039851575910000013352797082157857201_);}
	.st4{fill:url(#SVGID_00000134931949484314577470000017173120630602550973_);}
	.st5{fill:url(#SVGID_00000041291485985025333540000009592061061471680426_);}
	.st6{fill:url(#SVGID_00000134247302453218545270000014195554707917564076_);}
</style>
<path class="st0" d="M0,0h35.5v34H0V0z"/>
<g>
	<g>
		<path class="st0" d="M7.2,11.7C7.2,11.7,7.1,11.7,7.2,11.7c0,0,0,0,0.1,0.1L7.2,11.7z"/>
		<linearGradient id="SVGID_1_" gradientUnits="userSpaceOnUse" x1="10.4436" y1="9.7541" x2="2.9335" y2="15.3116">
			<stop  offset="0" style="stop-color:#109A8F"/>
			<stop  offset="1" style="stop-color:#70C172"/>
		</linearGradient>
		<path class="st1" d="M7.2,11.8c0-0.1-0.1-0.1-0.1-0.2C6.9,11.4,6,10.2,4,10.7c0,0,0,0,0,0l-3.1,2.4c0,0-1.8,1.9-0.3,3.9
			c1.4,2,3.6,1,4.3,0.6c0.6-0.3,3.9-3.1,4.1-3.2l0,0L7.2,11.8z"/>
		
			<linearGradient id="SVGID_00000127760694939653217100000010353742400536305070_" gradientUnits="userSpaceOnUse" x1="15.0594" y1="24.8547" x2="6.6481" y2="10.7357">
			<stop  offset="0" style="stop-color:#437DC0"/>
			<stop  offset="1" style="stop-color:#38C6F4"/>
		</linearGradient>
		<path style="fill:url(#SVGID_00000127760694939653217100000010353742400536305070_);" d="M7.2,11.8l1.7,2.7l0,0c0,0,0,0,0,0
			S7.7,12.5,7.2,11.8z"/>
		
			<linearGradient id="SVGID_00000108998885969985798500000011938485929097449639_" gradientUnits="userSpaceOnUse" x1="10.8178" y1="11.1091" x2="3.3076" y2="16.6666">
			<stop  offset="0" style="stop-color:#109A8F"/>
			<stop  offset="1" style="stop-color:#70C172"/>
		</linearGradient>
		<path style="fill:url(#SVGID_00000108998885969985798500000011938485929097449639_);" d="M7.2,11.8l1.7,2.7l0,0c0,0,0,0,0,0
			S7.7,12.5,7.2,11.8z"/>
		
			<linearGradient id="SVGID_00000114060796840587645910000015579523900221999772_" gradientUnits="userSpaceOnUse" x1="18.1729" y1="22.8643" x2="9.685" y2="8.6166">
			<stop  offset="0" style="stop-color:#437DC0"/>
			<stop  offset="1" style="stop-color:#38C6F4"/>
		</linearGradient>
		<path style="fill:url(#SVGID_00000114060796840587645910000015579523900221999772_);" d="M23.4,20.1l-2.7,4.2c0,0-1,1.7-2.8,1.7
			c-1.8,0-2.8-2-2.8-2l-6.1-9.4c0,0,0,0,0,0s-1.2-1.9-1.7-2.7l-0.1-0.1c0,0,0,0,0-0.1C6.9,11.4,6,10.2,4,10.7c0,0,0,0,0,0
			c0.4-0.2,3.9-3.1,3.9-3.1s2.4-1.7,4.4,0.8C13,9.5,18,17.2,18,17.2l1.8,2.8C19.8,20.1,21.4,22.3,23.4,20.1z"/>
		
			<linearGradient id="SVGID_00000163757403910237169520000010500837865737173378_" gradientUnits="userSpaceOnUse" x1="28.1399" y1="9.108" x2="20.3059" y2="21.2942">
			<stop  offset="0" style="stop-color:#FFC937"/>
			<stop  offset="1" style="stop-color:#F36B21"/>
		</linearGradient>
		<path style="fill:url(#SVGID_00000163757403910237169520000010500837865737173378_);" d="M28.9,11.6c0.3-0.5,0.8-0.7,1.1-0.9
			c1-0.4,2,0,2,0c0,0,0,0,0,0l-3.9-3.1c0,0-2.4-1.7-4.4,0.8C23,9.5,18,17.3,18,17.3l1.8,2.8c0,0,0,0,0,0c0,0,0,0,0,0c0,0,0,0,0,0
			c0.1,0.1,1.7,2.1,3.7,0l3.6-5.6c0,0,0,0,0,0S28.5,12.1,28.9,11.6z"/>
		
			<linearGradient id="SVGID_00000121281288867168874000000004481805920644000948_" gradientUnits="userSpaceOnUse" x1="27.5366" y1="11.2968" x2="34.4723" y2="16.3258">
			<stop  offset="0" style="stop-color:#BE202E"/>
			<stop  offset="1" style="stop-color:#F05151"/>
		</linearGradient>
		<path style="fill:url(#SVGID_00000121281288867168874000000004481805920644000948_);" d="M35.4,17.1c-1.4,2-3.6,1-4.3,0.6
			c-0.7-0.3-3.9-3.1-4.1-3.2c0,0,0,0,0,0s1.5-2.3,1.8-2.8c0.3-0.5,0.8-0.7,1.1-0.9c1-0.4,2,0,2,0c0,0,0,0,0,0l3.1,2.4
			C35.1,13.1,36.8,15.1,35.4,17.1z"/>
	</g>
</g>
</svg>
